<mxfile host="app.diagrams.net" modified="2022-05-04T05:28:31.752Z" agent="5.0 (Windows NT 10.0; Win64; x64) AppleWebKit/537.36 (KHTML, like Gecko) Chrome/97.0.4692.71 Safari/537.36" etag="iHdpUPvktdNm-3C9ZNv6" version="17.5.0" type="github">
  <diagram name="Page-1" id="4bd5d27a-524c-7e24-5d5f-89a86ee4fca1">
    <mxGraphModel dx="1542" dy="832" grid="1" gridSize="10" guides="1" tooltips="1" connect="1" arrows="1" fold="1" page="1" pageScale="1" pageWidth="1169" pageHeight="827" background="none" math="0" shadow="0">
      <root>
        <mxCell id="0" />
        <mxCell id="1" parent="0" />
        <mxCell id="ErhSHMuJ_9XtqN_3wWN7-1" value="&lt;font style=&quot;font-size: 18px&quot;&gt;Milled palm oil&lt;br&gt;cake&lt;br&gt;loading&lt;/font&gt;" style="rounded=0;whiteSpace=wrap;html=1;rotation=0;" vertex="1" parent="1">
          <mxGeometry x="39" y="659" width="160" height="100" as="geometry" />
        </mxCell>
        <mxCell id="ErhSHMuJ_9XtqN_3wWN7-2" value="" style="verticalLabelPosition=bottom;html=1;verticalAlign=top;align=center;shape=mxgraph.floorplan.wall;fillColor=#000000;fontSize=18;" vertex="1" parent="1">
          <mxGeometry x="27" y="768" width="190" height="10" as="geometry" />
        </mxCell>
        <mxCell id="ErhSHMuJ_9XtqN_3wWN7-3" value="" style="verticalLabelPosition=bottom;html=1;verticalAlign=top;align=center;shape=mxgraph.floorplan.wall;fillColor=#000000;direction=south;fontSize=18;" vertex="1" parent="1">
          <mxGeometry x="209" y="639" width="10" height="139" as="geometry" />
        </mxCell>
        <mxCell id="ErhSHMuJ_9XtqN_3wWN7-8" value="" style="verticalLabelPosition=bottom;html=1;verticalAlign=top;align=center;shape=mxgraph.floorplan.wall;fillColor=#000000;fontSize=18;" vertex="1" parent="1">
          <mxGeometry x="27" y="639" width="310" height="10" as="geometry" />
        </mxCell>
        <mxCell id="ErhSHMuJ_9XtqN_3wWN7-9" value="" style="verticalLabelPosition=bottom;html=1;verticalAlign=top;align=center;shape=mxgraph.floorplan.wall;fillColor=#000000;direction=south;fontSize=18;" vertex="1" parent="1">
          <mxGeometry x="20" y="639" width="10" height="139" as="geometry" />
        </mxCell>
        <mxCell id="ErhSHMuJ_9XtqN_3wWN7-10" value="&lt;span style=&quot;font-size: 18px&quot;&gt;Pretreatment&lt;br&gt;tank-1&lt;/span&gt;" style="rounded=0;whiteSpace=wrap;html=1;rotation=0;" vertex="1" parent="1">
          <mxGeometry x="160" y="529.5" width="160" height="100" as="geometry" />
        </mxCell>
        <mxCell id="ErhSHMuJ_9XtqN_3wWN7-11" value="" style="verticalLabelPosition=bottom;html=1;verticalAlign=top;align=center;shape=mxgraph.floorplan.wall;fillColor=#000000;direction=south;fontSize=18;" vertex="1" parent="1">
          <mxGeometry x="137" y="519" width="10" height="120.5" as="geometry" />
        </mxCell>
        <mxCell id="ErhSHMuJ_9XtqN_3wWN7-12" value="" style="verticalLabelPosition=bottom;html=1;verticalAlign=top;align=center;shape=mxgraph.floorplan.wall;fillColor=#000000;fontSize=18;" vertex="1" parent="1">
          <mxGeometry x="27" y="510" width="190" height="10" as="geometry" />
        </mxCell>
        <mxCell id="ErhSHMuJ_9XtqN_3wWN7-13" value="" style="verticalLabelPosition=bottom;html=1;verticalAlign=top;align=center;shape=mxgraph.floorplan.wall;fillColor=#000000;direction=south;fontSize=18;" vertex="1" parent="1">
          <mxGeometry x="20" y="510" width="10" height="139" as="geometry" />
        </mxCell>
        <mxCell id="ErhSHMuJ_9XtqN_3wWN7-14" value="" style="verticalLabelPosition=bottom;html=1;verticalAlign=top;align=center;shape=mxgraph.floorplan.wall;fillColor=#000000;fontSize=18;" vertex="1" parent="1">
          <mxGeometry x="343" y="639" width="384" height="10" as="geometry" />
        </mxCell>
        <mxCell id="ErhSHMuJ_9XtqN_3wWN7-15" value="&lt;span style=&quot;font-size: 18px&quot;&gt;Pretreatment&lt;br&gt;tank-2&lt;/span&gt;" style="rounded=0;whiteSpace=wrap;html=1;rotation=0;" vertex="1" parent="1">
          <mxGeometry x="39" y="400.5" width="160" height="100" as="geometry" />
        </mxCell>
        <mxCell id="ErhSHMuJ_9XtqN_3wWN7-16" value="" style="verticalLabelPosition=bottom;html=1;verticalAlign=top;align=center;shape=mxgraph.floorplan.wall;fillColor=#000000;direction=south;fontSize=18;" vertex="1" parent="1">
          <mxGeometry x="567" y="389" width="10" height="260" as="geometry" />
        </mxCell>
        <mxCell id="ErhSHMuJ_9XtqN_3wWN7-17" value="" style="verticalLabelPosition=bottom;html=1;verticalAlign=top;align=center;shape=mxgraph.floorplan.wall;fillColor=#000000;fontSize=18;" vertex="1" parent="1">
          <mxGeometry x="343" y="510" width="224" height="10" as="geometry" />
        </mxCell>
        <mxCell id="ErhSHMuJ_9XtqN_3wWN7-18" value="" style="verticalLabelPosition=bottom;html=1;verticalAlign=top;align=center;shape=mxgraph.floorplan.wall;fillColor=#000000;fontSize=18;" vertex="1" parent="1">
          <mxGeometry x="27" y="380" width="200" height="10" as="geometry" />
        </mxCell>
        <mxCell id="ErhSHMuJ_9XtqN_3wWN7-19" value="" style="verticalLabelPosition=bottom;html=1;verticalAlign=top;align=center;shape=mxgraph.floorplan.wall;fillColor=#000000;direction=south;fontSize=18;" vertex="1" parent="1">
          <mxGeometry x="20" y="59" width="10" height="460" as="geometry" />
        </mxCell>
        <mxCell id="ErhSHMuJ_9XtqN_3wWN7-20" value="" style="verticalLabelPosition=bottom;html=1;verticalAlign=top;align=center;shape=mxgraph.floorplan.wall;fillColor=#000000;direction=south;fontSize=18;" vertex="1" parent="1">
          <mxGeometry x="210" y="381" width="10" height="139" as="geometry" />
        </mxCell>
        <mxCell id="ErhSHMuJ_9XtqN_3wWN7-21" value="" style="verticalLabelPosition=bottom;html=1;verticalAlign=top;align=center;shape=mxgraph.floorplan.wall;fillColor=#000000;fontSize=18;" vertex="1" parent="1">
          <mxGeometry x="220" y="380" width="951" height="10" as="geometry" />
        </mxCell>
        <mxCell id="ErhSHMuJ_9XtqN_3wWN7-22" value="&lt;span style=&quot;font-size: 18px&quot;&gt;Hydrolysis reactor&lt;/span&gt;" style="rounded=0;whiteSpace=wrap;html=1;rotation=0;" vertex="1" parent="1">
          <mxGeometry x="346" y="400.5" width="210" height="100" as="geometry" />
        </mxCell>
        <mxCell id="ErhSHMuJ_9XtqN_3wWN7-23" value="&lt;font style=&quot;font-size: 15px&quot;&gt;Separator&lt;/font&gt;" style="ellipse;whiteSpace=wrap;html=1;aspect=fixed;fontSize=18;" vertex="1" parent="1">
          <mxGeometry x="47" y="539.5" width="80" height="80" as="geometry" />
        </mxCell>
        <mxCell id="ErhSHMuJ_9XtqN_3wWN7-24" value="" style="verticalLabelPosition=bottom;html=1;verticalAlign=top;align=center;shape=mxgraph.floorplan.wall;fillColor=#000000;fontSize=18;" vertex="1" parent="1">
          <mxGeometry x="217" y="510" width="190" height="10" as="geometry" />
        </mxCell>
        <mxCell id="ErhSHMuJ_9XtqN_3wWN7-25" value="" style="verticalLabelPosition=bottom;html=1;verticalAlign=top;align=center;shape=mxgraph.floorplan.wall;fillColor=#000000;direction=south;fontSize=18;" vertex="1" parent="1">
          <mxGeometry x="332" y="510" width="10" height="139" as="geometry" />
        </mxCell>
        <mxCell id="ErhSHMuJ_9XtqN_3wWN7-26" value="&lt;font style=&quot;font-size: 15px&quot;&gt;Separator&lt;/font&gt;" style="ellipse;whiteSpace=wrap;html=1;aspect=fixed;fontSize=18;" vertex="1" parent="1">
          <mxGeometry x="233" y="410.5" width="80" height="80" as="geometry" />
        </mxCell>
        <mxCell id="ErhSHMuJ_9XtqN_3wWN7-27" value="" style="verticalLabelPosition=bottom;html=1;verticalAlign=top;align=center;shape=mxgraph.floorplan.wall;fillColor=#000000;direction=south;fontSize=18;" vertex="1" parent="1">
          <mxGeometry x="324" y="381" width="10" height="139" as="geometry" />
        </mxCell>
        <mxCell id="ErhSHMuJ_9XtqN_3wWN7-28" value="solid-liquid&lt;br&gt;separator" style="ellipse;whiteSpace=wrap;html=1;aspect=fixed;fontSize=15;" vertex="1" parent="1">
          <mxGeometry x="350" y="539" width="80" height="80" as="geometry" />
        </mxCell>
        <mxCell id="ErhSHMuJ_9XtqN_3wWN7-29" value="" style="verticalLabelPosition=bottom;html=1;verticalAlign=top;align=center;shape=mxgraph.floorplan.wall;fillColor=#000000;direction=south;fontSize=18;" vertex="1" parent="1">
          <mxGeometry x="437" y="519" width="10" height="129.5" as="geometry" />
        </mxCell>
        <mxCell id="ErhSHMuJ_9XtqN_3wWN7-30" value="&lt;span style=&quot;font-size: 18px&quot;&gt;Adsorption column&lt;/span&gt;" style="rounded=0;whiteSpace=wrap;html=1;rotation=0;" vertex="1" parent="1">
          <mxGeometry x="350" y="658.5" width="237" height="100" as="geometry" />
        </mxCell>
        <mxCell id="ErhSHMuJ_9XtqN_3wWN7-31" value="" style="verticalLabelPosition=bottom;html=1;verticalAlign=top;align=center;shape=mxgraph.floorplan.wall;fillColor=#000000;fontSize=18;" vertex="1" parent="1">
          <mxGeometry x="207" y="768" width="954" height="10" as="geometry" />
        </mxCell>
        <mxCell id="ErhSHMuJ_9XtqN_3wWN7-32" value="" style="verticalLabelPosition=bottom;html=1;verticalAlign=top;align=center;shape=mxgraph.floorplan.wall;fillColor=#000000;direction=south;fontSize=18;" vertex="1" parent="1">
          <mxGeometry x="331" y="639.5" width="10" height="129.5" as="geometry" />
        </mxCell>
        <mxCell id="ErhSHMuJ_9XtqN_3wWN7-33" value="" style="verticalLabelPosition=bottom;html=1;verticalAlign=top;align=center;shape=mxgraph.floorplan.wall;fillColor=#000000;direction=south;fontSize=18;" vertex="1" parent="1">
          <mxGeometry x="596" y="639.5" width="10" height="129.5" as="geometry" />
        </mxCell>
        <mxCell id="ErhSHMuJ_9XtqN_3wWN7-34" value="&lt;font style=&quot;font-size: 14px&quot;&gt;Charcoal&lt;br&gt;loading&lt;/font&gt;" style="shape=trapezoid;perimeter=trapezoidPerimeter;whiteSpace=wrap;html=1;fixedSize=1;fontSize=15;" vertex="1" parent="1">
          <mxGeometry x="226.5" y="683.5" width="93" height="50" as="geometry" />
        </mxCell>
        <mxCell id="ErhSHMuJ_9XtqN_3wWN7-35" value="&lt;font style=&quot;font-size: 14px&quot;&gt;Charcoal&lt;br&gt;unloading&lt;br&gt;&lt;/font&gt;" style="shape=trapezoid;perimeter=trapezoidPerimeter;whiteSpace=wrap;html=1;fixedSize=1;fontSize=15;" vertex="1" parent="1">
          <mxGeometry x="617" y="683.5" width="93" height="50" as="geometry" />
        </mxCell>
        <mxCell id="ErhSHMuJ_9XtqN_3wWN7-36" value="" style="verticalLabelPosition=bottom;html=1;verticalAlign=top;align=center;shape=mxgraph.floorplan.wall;fillColor=#000000;direction=south;fontSize=18;" vertex="1" parent="1">
          <mxGeometry x="717" y="389" width="10" height="388.5" as="geometry" />
        </mxCell>
        <mxCell id="ErhSHMuJ_9XtqN_3wWN7-37" value="mixer" style="ellipse;whiteSpace=wrap;html=1;aspect=fixed;fontSize=15;" vertex="1" parent="1">
          <mxGeometry x="467" y="539" width="80" height="80" as="geometry" />
        </mxCell>
        <mxCell id="ErhSHMuJ_9XtqN_3wWN7-38" value="&lt;font style=&quot;font-size: 18px&quot;&gt;Fermenter&lt;/font&gt;" style="rounded=0;whiteSpace=wrap;html=1;fontSize=14;rotation=90;" vertex="1" parent="1">
          <mxGeometry x="574.13" y="495.12" width="145.25" height="121.5" as="geometry" />
        </mxCell>
        <mxCell id="ErhSHMuJ_9XtqN_3wWN7-40" value="&lt;font style=&quot;font-size: 14px&quot;&gt;Water supply&lt;/font&gt;" style="ellipse;whiteSpace=wrap;html=1;fontSize=18;" vertex="1" parent="1">
          <mxGeometry x="596" y="400.5" width="107" height="58" as="geometry" />
        </mxCell>
        <mxCell id="ErhSHMuJ_9XtqN_3wWN7-41" value="" style="verticalLabelPosition=bottom;html=1;verticalAlign=top;align=center;shape=mxgraph.floorplan.wall;fillColor=#000000;fontSize=18;" vertex="1" parent="1">
          <mxGeometry x="568.5" y="464.5" width="602.5" height="10" as="geometry" />
        </mxCell>
        <mxCell id="ErhSHMuJ_9XtqN_3wWN7-42" value="filter" style="ellipse;whiteSpace=wrap;html=1;aspect=fixed;fontSize=14;" vertex="1" parent="1">
          <mxGeometry x="738" y="403" width="51" height="51" as="geometry" />
        </mxCell>
        <mxCell id="ErhSHMuJ_9XtqN_3wWN7-43" value="" style="verticalLabelPosition=bottom;html=1;verticalAlign=top;align=center;shape=mxgraph.floorplan.wall;fillColor=#000000;direction=south;fontSize=18;" vertex="1" parent="1">
          <mxGeometry x="797" y="381" width="10" height="88" as="geometry" />
        </mxCell>
        <mxCell id="ErhSHMuJ_9XtqN_3wWN7-44" value="&lt;font style=&quot;font-size: 16px&quot;&gt;Distillation&lt;br&gt;column-1&lt;/font&gt;" style="rounded=0;whiteSpace=wrap;html=1;fontSize=14;rotation=90;" vertex="1" parent="1">
          <mxGeometry x="659.5" y="564.5" width="277" height="116" as="geometry" />
        </mxCell>
        <mxCell id="ErhSHMuJ_9XtqN_3wWN7-45" value="&lt;span style=&quot;font-size: 16px&quot;&gt;Decanter&lt;/span&gt;" style="rounded=0;whiteSpace=wrap;html=1;fontSize=14;rotation=90;" vertex="1" parent="1">
          <mxGeometry x="852.5" y="613" width="180" height="116" as="geometry" />
        </mxCell>
        <mxCell id="ErhSHMuJ_9XtqN_3wWN7-46" value="&lt;font style=&quot;font-size: 16px&quot;&gt;Distillation&lt;br&gt;column-2&lt;/font&gt;" style="rounded=0;whiteSpace=wrap;html=1;fontSize=14;rotation=90;" vertex="1" parent="1">
          <mxGeometry x="951" y="564.5" width="277" height="116" as="geometry" />
        </mxCell>
        <mxCell id="ErhSHMuJ_9XtqN_3wWN7-47" value="" style="verticalLabelPosition=bottom;html=1;verticalAlign=top;align=center;shape=mxgraph.floorplan.wall;fillColor=#000000;direction=south;fontSize=18;" vertex="1" parent="1">
          <mxGeometry x="1161" y="49" width="10" height="729" as="geometry" />
        </mxCell>
        <mxCell id="ErhSHMuJ_9XtqN_3wWN7-49" value="" style="verticalLabelPosition=bottom;html=1;verticalAlign=top;align=center;shape=mxgraph.floorplan.wall;fillColor=#000000;direction=south;fontSize=18;" vertex="1" parent="1">
          <mxGeometry x="1011" y="469" width="10" height="308" as="geometry" />
        </mxCell>
        <mxCell id="ErhSHMuJ_9XtqN_3wWN7-50" value="" style="verticalLabelPosition=bottom;html=1;verticalAlign=top;align=center;shape=mxgraph.floorplan.wall;fillColor=#000000;direction=south;fontSize=18;" vertex="1" parent="1">
          <mxGeometry x="865" y="469" width="10" height="308" as="geometry" />
        </mxCell>
        <mxCell id="ErhSHMuJ_9XtqN_3wWN7-51" value="Butanol and other byproduct offloading" style="rounded=0;whiteSpace=wrap;html=1;fontSize=16;" vertex="1" parent="1">
          <mxGeometry x="817" y="398" width="334" height="60" as="geometry" />
        </mxCell>
        <mxCell id="ErhSHMuJ_9XtqN_3wWN7-52" value="" style="verticalLabelPosition=bottom;html=1;verticalAlign=top;align=center;shape=mxgraph.floorplan.wall;fillColor=#000000;fontSize=18;" vertex="1" parent="1">
          <mxGeometry x="20" y="49" width="1141" height="10" as="geometry" />
        </mxCell>
        <mxCell id="ErhSHMuJ_9XtqN_3wWN7-53" value="&lt;span style=&quot;font-size: 18px&quot;&gt;Canteen and recreational area&lt;/span&gt;" style="rounded=0;whiteSpace=wrap;html=1;rotation=0;" vertex="1" parent="1">
          <mxGeometry x="47" y="69" width="224" height="300" as="geometry" />
        </mxCell>
        <mxCell id="ErhSHMuJ_9XtqN_3wWN7-54" value="&lt;span style=&quot;font-size: 18px&quot;&gt;Parking&lt;/span&gt;" style="rounded=0;whiteSpace=wrap;html=1;rotation=0;" vertex="1" parent="1">
          <mxGeometry x="291" y="69" width="430" height="300" as="geometry" />
        </mxCell>
        <mxCell id="ErhSHMuJ_9XtqN_3wWN7-55" value="" style="verticalLabelPosition=bottom;html=1;verticalAlign=top;align=center;shape=mxgraph.floorplan.wall;fillColor=#000000;fontSize=18;" vertex="1" parent="1">
          <mxGeometry x="865" y="564.5" width="156" height="10" as="geometry" />
        </mxCell>
        <mxCell id="ErhSHMuJ_9XtqN_3wWN7-56" value="&lt;span style=&quot;font-size: 18px&quot;&gt;Control room&lt;/span&gt;" style="rounded=0;whiteSpace=wrap;html=1;rotation=0;" vertex="1" parent="1">
          <mxGeometry x="896" y="483.75" width="94" height="70.5" as="geometry" />
        </mxCell>
        <mxCell id="ErhSHMuJ_9XtqN_3wWN7-57" value="&lt;span style=&quot;font-size: 18px&quot;&gt;Administrative and security&lt;br&gt;officies&lt;br&gt;&lt;/span&gt;" style="rounded=0;whiteSpace=wrap;html=1;rotation=0;" vertex="1" parent="1">
          <mxGeometry x="738" y="69" width="281" height="91" as="geometry" />
        </mxCell>
        <mxCell id="ErhSHMuJ_9XtqN_3wWN7-58" value="&lt;span style=&quot;font-size: 18px&quot;&gt;Gate&lt;br&gt;&lt;/span&gt;" style="rounded=0;whiteSpace=wrap;html=1;rotation=90;" vertex="1" parent="1">
          <mxGeometry x="949" y="173.5" width="281" height="91" as="geometry" />
        </mxCell>
      </root>
    </mxGraphModel>
  </diagram>
</mxfile>
